<svg width="217" height="26" viewBox="0 0 217 26" fill="none" xmlns="http://www.w3.org/2000/svg">
<path fill-rule="evenodd" clip-rule="evenodd" d="M65.8323 0.199951H69.4895V3.8296C74.3526 3.8296 79.2156 3.8296 84.0788 3.8296V22.1153C77.9835 22.1153 71.8883 22.1153 65.793 22.1153C65.793 17.2391 65.793 12.363 65.793 7.48675H69.4501V3.8571H65.8323V0.199951Z" fill="#B5252F"/>
<path fill-rule="evenodd" clip-rule="evenodd" d="M3.65708 3.85718C7.31423 3.85718 10.9714 3.85718 14.6285 3.85718H14.6286L14.6285 22.1428H10.9714V14.8286H7.3143V11.1714H10.9714V7.51433H3.65715C3.65715 12.3905 3.65715 17.2667 3.65715 22.1429L0 22.143C0 17.2668 0 12.3905 0 7.51426H3.65708V3.85718Z" fill="#2E3777"/>
<path fill-rule="evenodd" clip-rule="evenodd" d="M27.4343 3.85725H31.0915V7.5144H27.4343V3.85725ZM23.7771 14.8286H27.4343V11.1715H31.0915C31.0915 14.8287 31.0915 18.4858 31.0915 22.143H27.4343V18.4858H23.7771V14.8286H20.12V22.143L16.4629 22.1431C16.4629 16.0478 16.4629 9.95254 16.4629 3.85718H20.12V11.1715H23.7771V14.8286Z" fill="#2E3777"/>
<path fill-rule="evenodd" clip-rule="evenodd" d="M43.8903 3.85725V7.5144H36.576C36.576 11.1715 36.576 14.8286 36.576 18.4858H47.5475V22.143H32.9189V22.1429C32.9189 16.0476 32.9189 9.95247 32.9189 3.85725V3.85718C36.576 3.85718 40.2331 3.85725 43.8903 3.85725Z" fill="#2E3777"/>
<path fill-rule="evenodd" clip-rule="evenodd" d="M60.3469 3.85725H64.004V7.5144H60.3469V3.85725ZM64.004 11.1715H64.004V22.143H60.3469V14.8286H53.0326V18.4858V22.1429V22.143H49.3755V22.1429V18.4858V14.8286V11.1715V7.5144V3.85718H53.0326V7.5144V11.1715H64.004V11.1715Z" fill="#2E3777"/>
<path fill-rule="evenodd" clip-rule="evenodd" d="M113.336 3.85718V7.51433H106.022C106.022 11.1715 106.022 14.8286 106.022 18.4857H113.336V14.8286H109.679V11.1714H116.993C116.993 14.8286 116.993 18.4857 116.993 22.1429C112.117 22.1429 107.241 22.143 102.365 22.143C102.365 17.2668 102.365 12.3905 102.365 7.51426H106.022V3.85718C108.46 3.85718 110.898 3.85718 113.336 3.85718ZM116.993 22.1429H120.65V25.8001H116.993V22.1429Z" fill="#2E3777"/>
<path fill-rule="evenodd" clip-rule="evenodd" d="M96.8791 3.85725H100.536V7.5144H96.8791V3.85725ZM93.2219 14.8286H96.8791V11.1715H100.536C100.536 14.8287 100.536 18.4858 100.536 22.143H96.8791V18.4858H93.2219V14.8286H89.5649V22.143L85.9077 22.1431C85.9077 16.0478 85.9077 9.95254 85.9077 3.85718H89.5649V11.1715H93.2219V14.8286Z" fill="#2E3777"/>
<path fill-rule="evenodd" clip-rule="evenodd" d="M32.9189 11.1714H36.576V14.8285H32.9189V11.1714ZM43.8903 18.4857H47.5475V22.1429H43.8903V18.4857Z" fill="#B5252F"/>
<path fill-rule="evenodd" clip-rule="evenodd" d="M56.6895 11.1714H60.3466V14.8285H64.0037V22.1429H60.3466V14.8285H56.6895V11.1714Z" fill="#B5252F"/>
<path fill-rule="evenodd" clip-rule="evenodd" d="M73.1074 7.48682H84.0789C84.079 7.48682 84.0789 17.5455 84.0789 18.4582H73.1074V14.8011H80.4218V11.1439H73.1074V7.48682Z" fill="#2E3777"/>
<path fill-rule="evenodd" clip-rule="evenodd" d="M89.5645 11.1714H93.2215V14.8285H96.8787V18.4857H93.2215V14.8285H89.5645V11.1714Z" fill="#B5252F"/>
<path fill-rule="evenodd" clip-rule="evenodd" d="M116.993 22.1424H120.65V25.7996H116.993V22.1424H113.336V18.4852H116.993V22.1424ZM102.365 11.1709H106.022V14.828H102.365V11.1709Z" fill="#B5252F"/>
<path fill-rule="evenodd" clip-rule="evenodd" d="M0 11.1714H3.65715V14.8285H0V11.1714ZM7.3143 11.1714H14.6285V14.8285H7.3143V11.1714Z" fill="#B5252F"/>
<path fill-rule="evenodd" clip-rule="evenodd" d="M23.7767 14.8285H27.4339V18.4857H23.7767V14.8285H20.1196V11.1714H23.7767V14.8285Z" fill="#B5252F"/>
<path d="M134.468 11V4.28H135.227V11H134.468ZM137.195 11V4.28H137.905L142.139 9.6656V4.28H142.878V11H142.273L137.934 5.4896V11H137.195ZM146.526 11V4.9808H144.261V4.28H149.55V4.9808H147.285V11H146.526ZM150.929 11V4.28H155.787V4.9712H151.688V7.2656H155.355V7.9568H151.688V10.3088H155.835V11H150.929ZM157.36 11V4.28H160.25C161.076 4.28 161.712 4.504 162.16 4.952C162.506 5.2976 162.679 5.7392 162.679 6.2768V6.296C162.679 6.8336 162.512 7.272 162.18 7.6112C161.847 7.944 161.405 8.1584 160.855 8.2544L162.919 11H161.988L160.039 8.3888H158.119V11H157.36ZM158.119 7.7072H160.183C160.695 7.7072 161.111 7.5824 161.431 7.3328C161.751 7.0832 161.911 6.7472 161.911 6.3248V6.3056C161.911 5.8896 161.76 5.5664 161.46 5.336C161.159 5.0992 160.736 4.9808 160.192 4.9808H158.119V7.7072ZM164.298 11V4.28H165.008L169.242 9.6656V4.28H169.981V11H169.376L165.037 5.4896V11H164.298ZM171.306 11L174.369 4.232H175.079L178.142 11H177.326L176.538 9.224H172.881L172.084 11H171.306ZM173.178 8.5424H176.241L174.714 5.1152L173.178 8.5424ZM180.389 11V4.9808H178.123V4.28H183.413V4.9808H181.147V11H180.389ZM184.859 11V4.28H185.617V11H184.859ZM193.173 10.0976C192.526 10.776 191.704 11.1152 190.705 11.1152C189.707 11.1152 188.888 10.7792 188.248 10.1072C187.608 9.4288 187.288 8.6128 187.288 7.6592V7.64C187.288 6.6864 187.611 5.8704 188.257 5.192C188.904 4.5072 189.726 4.1648 190.725 4.1648C191.723 4.1648 192.542 4.504 193.182 5.1824C193.822 5.8544 194.142 6.6672 194.142 7.6208V7.64C194.142 8.5936 193.819 9.4128 193.173 10.0976ZM188.824 9.608C189.329 10.1456 189.963 10.4144 190.725 10.4144C191.486 10.4144 192.113 10.1488 192.606 9.6176C193.105 9.0864 193.355 8.4336 193.355 7.6592V7.64C193.355 6.8656 193.102 6.2096 192.597 5.672C192.097 5.1344 191.467 4.8656 190.705 4.8656C189.944 4.8656 189.313 5.1312 188.814 5.6624C188.321 6.1936 188.075 6.8464 188.075 7.6208V7.64C188.075 8.4144 188.325 9.0704 188.824 9.608ZM195.742 11V4.28H196.452L200.686 9.6656V4.28H201.425V11H200.82L196.481 5.4896V11H195.742ZM202.75 11L205.812 4.232H206.523L209.585 11H208.769L207.982 9.224H204.324L203.528 11H202.75ZM204.622 8.5424H207.684L206.158 5.1152L204.622 8.5424ZM210.91 11V4.28H211.669V10.2992H215.451V11H210.91ZM134.401 21V14.28H135.159V20.2992H138.942V21H134.401ZM145.445 20.0976C144.798 20.776 143.976 21.1152 142.977 21.1152C141.979 21.1152 141.16 20.7792 140.52 20.1072C139.88 19.4288 139.56 18.6128 139.56 17.6592V17.64C139.56 16.6864 139.883 15.8704 140.529 15.192C141.176 14.5072 141.998 14.1648 142.997 14.1648C143.995 14.1648 144.814 14.504 145.454 15.1824C146.094 15.8544 146.414 16.6672 146.414 17.6208V17.64C146.414 18.5936 146.091 19.4128 145.445 20.0976ZM141.096 19.608C141.601 20.1456 142.235 20.4144 142.997 20.4144C143.758 20.4144 144.385 20.1488 144.878 19.6176C145.377 19.0864 145.627 18.4336 145.627 17.6592V17.64C145.627 16.8656 145.374 16.2096 144.869 15.672C144.369 15.1344 143.739 14.8656 142.977 14.8656C142.216 14.8656 141.585 15.1312 141.086 15.6624C140.593 16.1936 140.347 16.8464 140.347 17.6208V17.64C140.347 18.4144 140.597 19.0704 141.096 19.608ZM151.134 21.1152C150.103 21.1152 149.274 20.7856 148.647 20.1264C148.026 19.4672 147.716 18.6448 147.716 17.6592V17.64C147.716 16.6928 148.033 15.8768 148.666 15.192C149.3 14.5072 150.106 14.1648 151.086 14.1648C151.623 14.1648 152.084 14.2384 152.468 14.3856C152.858 14.5328 153.233 14.7568 153.591 15.0576L153.102 15.6336C152.526 15.1216 151.844 14.8656 151.057 14.8656C150.327 14.8656 149.719 15.1344 149.233 15.672C148.746 16.2096 148.503 16.8592 148.503 17.6208V17.64C148.503 18.4528 148.743 19.1216 149.223 19.6464C149.71 20.1712 150.356 20.4336 151.162 20.4336C151.905 20.4336 152.551 20.2096 153.102 19.7616V18.0912H151.057V17.4096H153.831V20.088C153.076 20.7728 152.177 21.1152 151.134 21.1152ZM155.609 21V14.28H156.367V21H155.609ZM160.639 21.096C159.603 21.096 158.687 20.7376 157.894 20.0208L158.364 19.464C158.723 19.7904 159.081 20.0304 159.439 20.184C159.804 20.3376 160.214 20.4144 160.668 20.4144C161.116 20.4144 161.478 20.3088 161.753 20.0976C162.028 19.88 162.166 19.6048 162.166 19.272V19.2528C162.166 18.9264 162.044 18.6704 161.801 18.4848C161.558 18.2928 161.097 18.1232 160.419 17.976C159.625 17.8032 159.049 17.5728 158.691 17.2848C158.339 16.9904 158.163 16.5744 158.163 16.0368V16.0176C158.163 15.4928 158.371 15.0576 158.787 14.712C159.209 14.36 159.737 14.184 160.371 14.184C160.851 14.184 161.273 14.2512 161.638 14.3856C162.009 14.52 162.374 14.728 162.732 15.0096L162.291 15.5952C161.695 15.1088 161.049 14.8656 160.351 14.8656C159.916 14.8656 159.567 14.968 159.305 15.1728C159.049 15.3776 158.921 15.6368 158.921 15.9504V15.9696C158.921 16.3024 159.046 16.568 159.295 16.7664C159.551 16.9584 160.035 17.128 160.745 17.2752C161.507 17.448 162.06 17.6816 162.406 17.976C162.758 18.2704 162.934 18.6704 162.934 19.176V19.1952C162.934 19.7648 162.719 20.2256 162.291 20.5776C161.862 20.9232 161.311 21.096 160.639 21.096ZM166.12 21V14.9808H163.855V14.28H169.144V14.9808H166.879V21H166.12ZM170.59 21V14.28H171.349V21H170.59ZM176.389 21.1152C175.429 21.1152 174.626 20.7824 173.979 20.1168C173.339 19.4512 173.019 18.632 173.019 17.6592V17.64C173.019 16.6736 173.342 15.8544 173.989 15.1824C174.635 14.504 175.445 14.1648 176.418 14.1648C176.994 14.1648 177.483 14.2544 177.886 14.4336C178.296 14.6128 178.68 14.8784 179.038 15.2304L178.52 15.7872C178.2 15.4864 177.874 15.2592 177.541 15.1056C177.214 14.9456 176.837 14.8656 176.408 14.8656C175.666 14.8656 175.045 15.1312 174.546 15.6624C174.053 16.1936 173.806 16.8464 173.806 17.6208V17.64C173.806 18.4208 174.053 19.08 174.546 19.6176C175.045 20.1488 175.666 20.4144 176.408 20.4144C176.843 20.4144 177.227 20.3344 177.56 20.1744C177.893 20.0144 178.232 19.7712 178.578 19.4448L179.077 19.9344C178.699 20.3184 178.299 20.6128 177.877 20.8176C177.454 21.016 176.958 21.1152 176.389 21.1152ZM182.746 21.096C181.709 21.096 180.794 20.7376 180 20.0208L180.471 19.464C180.829 19.7904 181.187 20.0304 181.546 20.184C181.911 20.3376 182.32 20.4144 182.775 20.4144C183.223 20.4144 183.584 20.3088 183.859 20.0976C184.135 19.88 184.272 19.6048 184.272 19.272V19.2528C184.272 18.9264 184.151 18.6704 183.907 18.4848C183.664 18.2928 183.203 18.1232 182.525 17.976C181.731 17.8032 181.155 17.5728 180.797 17.2848C180.445 16.9904 180.269 16.5744 180.269 16.0368V16.0176C180.269 15.4928 180.477 15.0576 180.893 14.712C181.315 14.36 181.843 14.184 182.477 14.184C182.957 14.184 183.379 14.2512 183.744 14.3856C184.115 14.52 184.48 14.728 184.839 15.0096L184.397 15.5952C183.802 15.1088 183.155 14.8656 182.458 14.8656C182.023 14.8656 181.674 14.968 181.411 15.1728C181.155 15.3776 181.027 15.6368 181.027 15.9504V15.9696C181.027 16.3024 181.152 16.568 181.402 16.7664C181.658 16.9584 182.141 17.128 182.851 17.2752C183.613 17.448 184.167 17.6816 184.512 17.976C184.864 18.2704 185.04 18.6704 185.04 19.176V19.1952C185.04 19.7648 184.826 20.2256 184.397 20.5776C183.968 20.9232 183.418 21.096 182.746 21.096Z" fill="#2E3777"/>
</svg>
