<svg width="65" height="71" viewBox="0 0 65 71" fill="none" xmlns="http://www.w3.org/2000/svg">
<g filter="url(#filter0_d_8701_720)">
<mask id="path-1-outside-1_8701_720" maskUnits="userSpaceOnUse" x="16" y="16" width="33" height="39" fill="black">
<rect fill="white" x="16" y="16" width="33" height="39"/>
<path fill-rule="evenodd" clip-rule="evenodd" d="M24.4581 19H19.0581V24.5069H24.4V29.9724H19V52H46V46H31V40.6667H41.6667V35.3333H31V30H46V24.4655H24.4581V19Z"/>
</mask>
<path fill-rule="evenodd" clip-rule="evenodd" d="M24.4581 19H19.0581V24.5069H24.4V29.9724H19V52H46V46H31V40.6667H41.6667V35.3333H31V30H46V24.4655H24.4581V19Z" fill="#2E3777"/>
<path d="M19.0581 19V16H16.0581V19H19.0581ZM24.4581 19H27.4581V16H24.4581V19ZM19.0581 24.5069H16.0581V27.5069H19.0581V24.5069ZM24.4 24.5069H27.4V21.5069H24.4V24.5069ZM24.4 29.9724V32.9724H27.4V29.9724H24.4ZM19 29.9724V26.9724H16V29.9724H19ZM19 52H16V55H19V52ZM46 52V55H49V52H46ZM46 46H49V43H46V46ZM31 46H28V49H31V46ZM31 40.6667V37.6667H28V40.6667H31ZM41.6667 40.6667V43.6667H44.6667V40.6667H41.6667ZM41.6667 35.3333H44.6667V32.3333H41.6667V35.3333ZM31 35.3333H28V38.3333H31V35.3333ZM31 30V27H28V30H31ZM46 30V33H49V30H46ZM46 24.4655H49V21.4655H46V24.4655ZM24.4581 24.4655H21.4581V27.4655H24.4581V24.4655ZM19.0581 22H24.4581V16H19.0581V22ZM22.0581 24.5069V19H16.0581V24.5069H22.0581ZM24.4 21.5069H19.0581V27.5069H24.4V21.5069ZM27.4 29.9724V24.5069H21.4V29.9724H27.4ZM19 32.9724H24.4V26.9724H19V32.9724ZM22 52V29.9724H16V52H22ZM46 49H19V55H46V49ZM43 46V52H49V46H43ZM46 43H31V49H46V43ZM34 46V40.6667H28V46H34ZM31 43.6667H41.6667V37.6667H31V43.6667ZM44.6667 40.6667V35.3333H38.6667V40.6667H44.6667ZM41.6667 32.3333H31V38.3333H41.6667V32.3333ZM34 35.3333V30H28V35.3333H34ZM31 33H46V27H31V33ZM43 24.4655V30H49V24.4655H43ZM24.4581 27.4655H46V21.4655H24.4581V27.4655ZM21.4581 19V24.4655H27.4581V19H21.4581Z" fill="white" mask="url(#path-1-outside-1_8701_720)"/>
</g>
<defs>
<filter id="filter0_d_8701_720" x="0" y="0" width="65" height="71" filterUnits="userSpaceOnUse" color-interpolation-filters="sRGB">
<feFlood flood-opacity="0" result="BackgroundImageFix"/>
<feColorMatrix in="SourceAlpha" type="matrix" values="0 0 0 0 0 0 0 0 0 0 0 0 0 0 0 0 0 0 127 0" result="hardAlpha"/>
<feOffset/>
<feGaussianBlur stdDeviation="8"/>
<feComposite in2="hardAlpha" operator="out"/>
<feColorMatrix type="matrix" values="0 0 0 0 0.137255 0 0 0 0 0.176471 0 0 0 0 0.454902 0 0 0 0.25 0"/>
<feBlend mode="normal" in2="BackgroundImageFix" result="effect1_dropShadow_8701_720"/>
<feBlend mode="normal" in="SourceGraphic" in2="effect1_dropShadow_8701_720" result="shape"/>
</filter>
</defs>
</svg>
