<svg width="72" height="72" viewBox="0 0 72 72" fill="none" xmlns="http://www.w3.org/2000/svg">
<g clip-path="url(#clip0_3984_27921)" filter="url(#filter0_d_3984_27921)">
<rect width="40" height="40" transform="translate(16 16)" fill="transparent"/>
<path d="M32.8484 23.3855H27.5518V28.6822H32.8484V23.3855Z" fill="#2E3777"/>
<path d="M48.743 23.3855H43.4463V28.6822H48.743V23.3855Z" fill="#2E3777"/>
<path d="M27.5467 28.6816H22.25V33.9783H27.5467V28.6816Z" fill="#2E3777"/>
<path d="M38.1464 28.6819H32.8496V33.9786H38.1464V28.6819Z" fill="#2E3777"/>
<path d="M43.4461 28.6819H38.1494V33.9786H43.4461V28.6819Z" fill="#2E3777"/>
<path d="M38.1464 33.9836H32.8496V39.2803H38.1464V33.9836Z" fill="#2E3777"/>
<path d="M43.4461 39.2803H38.1494V44.577H43.4461V39.2803Z" fill="#2E3777"/>
<path d="M27.5467 44.5769H22.25V49.8736H27.5467V44.5769Z" fill="#2E3777"/>
<path d="M32.8484 44.5769H27.5518V49.8736H32.8484V44.5769Z" fill="#2E3777"/>
<path d="M27.5467 18.0833H22.25V23.3799H27.5467V18.0833Z" fill="#B5252F"/>
<path d="M38.1464 23.3855H32.8496V28.6822H38.1464V23.3855Z" fill="#B5252F"/>
<path d="M43.4461 23.3855H38.1494V28.6822H43.4461V23.3855Z" fill="#B5252F"/>
<path d="M32.8484 28.6819H27.5518V33.9786H32.8484V28.6819Z" fill="#B5252F"/>
<path d="M48.743 28.6816H43.4463V33.9783H48.743V28.6816Z" fill="#B5252F"/>
<path d="M27.5467 33.9836H22.25V39.2803H27.5467V33.9836Z" fill="#B5252F"/>
<path d="M32.8484 33.9836H27.5518V39.2803H32.8484V33.9836Z" fill="#B5252F"/>
<path d="M43.4461 33.9836H38.1494V39.2803H43.4461V33.9836Z" fill="#B5252F"/>
<path d="M48.743 33.9836H43.4463V39.2803H48.743V33.9836Z" fill="#B5252F"/>
<path d="M27.5467 39.2803H22.25V44.577H27.5467V39.2803Z" fill="#B5252F"/>
<path d="M32.8484 39.2803H27.5518V44.577H32.8484V39.2803Z" fill="#B5252F"/>
<path d="M38.1464 39.2803H32.8496V44.577H38.1464V39.2803Z" fill="#B5252F"/>
<path d="M48.743 39.2803H43.4463V44.577H48.743V39.2803Z" fill="#B5252F"/>
<path d="M38.1464 44.5769H32.8496V49.8736H38.1464V44.5769Z" fill="#B5252F"/>
<path d="M43.4461 44.5769H38.1494V49.8736H43.4461V44.5769Z" fill="#B5252F"/>
<path d="M48.743 44.5769H43.4463V49.8736H48.743V44.5769Z" fill="#B5252F"/>
<path fill-rule="evenodd" clip-rule="evenodd" d="M30.7597 40.2138C23.8087 35.9329 24.2151 31.5359 31.7368 32.7984C38.2186 33.8867 47.327 40.296 51.7724 44.8526C46.0984 40.0832 38.3927 34.7042 31.2724 33.998C25.0808 33.3837 26.9142 37.4808 30.7597 40.2138Z" fill="white"/>
<path fill-rule="evenodd" clip-rule="evenodd" d="M32.016 33.4179C25.6358 29.9303 27.8222 27.0764 34.2072 28.1938C39.6974 29.1515 47.8625 34.7191 50.2763 37.2344C45.9132 34.2064 38.9573 29.5385 33.4478 28.8565C28.6445 28.2615 27.9092 30.8494 32.016 33.4179Z" fill="white"/>
<path fill-rule="evenodd" clip-rule="evenodd" d="M29.3064 38.5109C34.4773 39.1348 43.3584 45.5296 45.8543 48.219C38.2116 42.8546 32.2764 40.4796 29.3838 40.378C23.792 40.1845 30.7575 46.0617 32.3779 47.0339C33.7807 47.8756 35.5222 48.7511 37.665 49.6315L37.636 49.7282C36.3735 49.2348 34.3902 48.369 32.3973 47.3048C27.7391 44.8234 21.2477 37.5386 29.3064 38.5109Z" fill="white"/>
<path fill-rule="evenodd" clip-rule="evenodd" d="M35.3151 28.9768C33.2302 27.6901 32.0645 26.3695 32.4709 25.5134C33.2255 23.9171 37.071 24.396 38.4883 24.7926C42.2661 25.8471 46.3584 28.6817 48.3126 30.6553C45.2361 28.3963 39.8862 25.5134 35.9778 25.2425C32.9643 25.0345 31.8903 26.5437 35.3151 28.9768Z" fill="white"/>
<path fill-rule="evenodd" clip-rule="evenodd" d="M45.8456 24.9471C45.6812 24.7052 45.4974 24.4682 45.2942 24.2602C45.0089 23.9603 44.6799 23.704 44.3171 23.5443C40.9069 22.0206 35.4651 26.7949 32.1564 34.2006C28.8526 41.6063 28.9349 48.8427 32.3403 50.3664C33.1481 50.7244 34.0671 50.734 35.0442 50.439C35.4554 50.3132 35.4312 50.2842 35.02 50.3713C34.3525 50.5164 33.714 50.4728 33.1142 50.2068C30.3909 48.9927 30.4006 41.0791 33.4045 34.3457C34.7105 31.3999 41.468 20.7968 45.7634 24.9955C46.0779 25.2857 46.31 25.6195 45.8456 24.9471Z" fill="white"/>
</g>
<defs>
<filter id="filter0_d_3984_27921" x="0" y="0" width="72" height="72" filterUnits="userSpaceOnUse" color-interpolation-filters="sRGB">
<feFlood flood-opacity="0" result="BackgroundImageFix"/>
<feColorMatrix in="SourceAlpha" type="matrix" values="0 0 0 0 0 0 0 0 0 0 0 0 0 0 0 0 0 0 127 0" result="hardAlpha"/>
<feOffset/>
<feGaussianBlur stdDeviation="8"/>
<feComposite in2="hardAlpha" operator="out"/>
<feColorMatrix type="matrix" values="0 0 0 0 0.270588 0 0 0 0 0.270588 0 0 0 0 0.270588 0 0 0 0.25 0"/>
<feBlend mode="normal" in2="BackgroundImageFix" result="effect1_dropShadow_3984_27921"/>
<feBlend mode="normal" in="SourceGraphic" in2="effect1_dropShadow_3984_27921" result="shape"/>
</filter>
<clipPath id="clip0_3984_27921">
<rect width="40" height="40" fill="white" transform="translate(16 16)"/>
</clipPath>
</defs>
</svg>
